<?xml version="1.0" encoding="UTF-8" standalone="no"?>
<!DOCTYPE svg PUBLIC "-//W3C//DTD SVG 1.1//EN" "http://www.w3.org/Graphics/SVG/1.1/DTD/svg11.dtd">
<svg width="100%" height="100%" viewBox="0 0 1054 1283" version="1.1" xmlns="http://www.w3.org/2000/svg" xmlns:xlink="http://www.w3.org/1999/xlink" xml:space="preserve" xmlns:serif="http://www.serif.com/" style="fill-rule:evenodd;clip-rule:evenodd;stroke-linejoin:round;stroke-miterlimit:2;">
    <g transform="matrix(1,0,0,1,-4611.631701,-850.191846)">
        <g id="fondo" transform="matrix(1,0,0,2.5123,25.421095,-1258.269205)">
            <rect x="4586.21" y="839.255" width="1053.069" height="510.686" style="fill:rgb(15,255,0);"/>
        </g>
        <g id="relleno" transform="matrix(4.166667,0,0,4.166667,3946.359375,0)">
            <g transform="matrix(0.24,0,0,0.24,-947.12625,0)">
                <rect x="4726.489" y="1491.691" width="772.958" height="369.575" style="fill:white;"/>
            </g>
            <g transform="matrix(0.24,0,0,0.24,-947.12625,130.830756)">
                <path d="M5499.447,1316.138L4726.489,1316.137L4726.489,946.563L5499.447,946.563L5499.447,1316.138ZM5129.855,954.896L5129.855,1307.804L5491.114,1307.804L5491.114,954.896L5129.855,954.896ZM4995.395,1008.561L4995.395,980.163L4979.437,980.163C4973.562,980.371 4967.692,980.942 4961.812,981.913C4917.847,989.172 4873.712,1016.559 4837.895,1058.788C4820.074,1079.799 4804.314,1104.395 4791.687,1131.955C4787.967,1140.074 4784.52,1148.455 4781.395,1157.038L4780.562,1159.288C4777.437,1167.83 4774.616,1176.458 4772.229,1185.038C4766.219,1206.63 4762.506,1228.082 4760.937,1248.913C4760.077,1260.331 4759.854,1271.58 4760.354,1282.538L4776.895,1282.538C4776.729,1278.955 4776.645,1275.33 4776.645,1271.663C4776.645,1264.205 4776.942,1256.622 4777.562,1248.913C4779.116,1229.581 4782.683,1209.632 4788.27,1189.538C4790.494,1181.542 4793.187,1173.288 4796.229,1164.996L4797.02,1162.788C4800.062,1154.496 4803.384,1146.491 4806.854,1138.913C4824.299,1100.804 4847.94,1068.708 4874.479,1044.705C4901.607,1020.167 4931.812,1004.08 4961.812,998.746C4961.854,998.705 4961.895,998.663 4961.937,998.746L4961.937,1034.528C4953.904,1041.954 4946.158,1050.062 4938.758,1058.788C4920.937,1079.799 4905.176,1104.395 4892.549,1131.955C4888.829,1140.074 4885.383,1148.455 4882.258,1157.038L4881.424,1159.288C4878.299,1167.83 4875.479,1176.458 4873.091,1185.038C4867.082,1206.63 4863.368,1228.082 4861.799,1248.913C4860.939,1260.331 4860.716,1271.58 4861.216,1282.538L4877.758,1282.538C4877.591,1278.955 4877.508,1275.33 4877.508,1271.663C4877.508,1264.205 4877.805,1256.622 4878.424,1248.913C4879.979,1229.581 4883.545,1209.632 4889.133,1189.538C4891.356,1181.542 4894.049,1173.288 4897.091,1164.996L4897.883,1162.788C4900.924,1154.496 4904.247,1146.491 4907.716,1138.913C4922.164,1107.353 4940.874,1079.921 4961.937,1057.785L4961.937,1248.913L4961.812,1248.913L4961.812,1282.538L4995.395,1282.538L4995.395,1028.501C5016.98,1013.05 5039.887,1002.797 5062.674,998.746C5062.716,998.705 5062.758,998.663 5062.799,998.746L5062.799,1248.913L5062.674,1248.913L5062.674,1282.538L5096.258,1282.538L5096.258,980.163L5080.299,980.163C5074.424,980.371 5068.554,980.942 5062.674,981.913C5039.908,985.672 5017.072,994.714 4995.395,1008.561Z" style="fill:rgb(25,25,25);"/>
            </g>
            <g transform="matrix(0.24,0,0,0.24,-947.12625,130.830756)">
                <path d="M5353.043,1131.35C5403.597,1162.431 5440.428,1204.61 5457.066,1248.925C5461.233,1260.05 5464.108,1271.3 5465.608,1282.55L5163.441,1282.55L5163.441,1248.925L5439.233,1248.925C5422.135,1208.019 5385.805,1169.102 5336.507,1140.852C5328.041,1145.391 5319.246,1149.628 5310.15,1153.525C5301.941,1157.067 5293.483,1160.275 5284.858,1163.234L5282.608,1163.984C5273.983,1166.9 5265.275,1169.484 5256.608,1171.692C5224.65,1179.775 5193.108,1182.859 5163.441,1181.4L5163.441,1164.859C5191.608,1166.275 5221.816,1163.317 5252.525,1155.525C5260.566,1153.484 5268.9,1151.025 5277.275,1148.192L5279.525,1147.442C5287.858,1144.609 5295.983,1141.525 5303.608,1138.234C5308.711,1136.046 5313.711,1133.75 5318.605,1131.35C5313.711,1128.951 5308.711,1126.654 5303.608,1124.467C5295.983,1121.175 5287.858,1118.092 5279.525,1115.258L5277.275,1114.508C5268.9,1111.675 5260.566,1109.217 5252.525,1107.175C5221.816,1099.383 5191.608,1096.425 5163.441,1097.842L5163.441,1081.3C5193.108,1079.842 5224.65,1082.925 5256.608,1091.008C5265.275,1093.217 5273.983,1095.8 5282.608,1098.717L5284.858,1099.467C5293.483,1102.425 5301.941,1105.633 5310.15,1109.175C5319.246,1113.073 5328.041,1117.309 5336.507,1121.849C5385.805,1093.598 5422.135,1054.681 5439.233,1013.775L5163.441,1013.775L5163.441,980.15L5465.608,980.15C5464.108,991.4 5461.233,1002.65 5457.066,1013.775C5440.428,1058.091 5403.597,1100.27 5353.043,1131.35Z" style="fill:rgb(25,25,25);"/>
            </g>
            <g id="s-t-u-d-i-o" serif:id="s t u d i o">
                <g transform="matrix(22,0,0,22,194.2725,340.3107)">
                    <path d="M0.24,0.005C0.197,0.005 0.156,-0.001 0.117,-0.014C0.078,-0.026 0.048,-0.042 0.026,-0.06L0.058,-0.116C0.079,-0.1 0.106,-0.086 0.14,-0.074C0.173,-0.063 0.208,-0.057 0.245,-0.057C0.295,-0.057 0.331,-0.065 0.353,-0.08C0.375,-0.096 0.386,-0.117 0.386,-0.143C0.386,-0.162 0.38,-0.177 0.368,-0.188C0.355,-0.199 0.339,-0.208 0.319,-0.213C0.299,-0.219 0.276,-0.224 0.252,-0.228C0.228,-0.232 0.203,-0.237 0.179,-0.242C0.154,-0.248 0.132,-0.256 0.112,-0.266C0.092,-0.276 0.075,-0.29 0.063,-0.308C0.051,-0.326 0.045,-0.35 0.045,-0.38C0.045,-0.409 0.053,-0.434 0.069,-0.457C0.085,-0.48 0.109,-0.498 0.14,-0.511C0.171,-0.524 0.209,-0.53 0.253,-0.53C0.287,-0.53 0.321,-0.526 0.355,-0.517C0.389,-0.508 0.417,-0.496 0.439,-0.481L0.408,-0.424C0.385,-0.44 0.36,-0.452 0.333,-0.458C0.307,-0.465 0.28,-0.469 0.253,-0.469C0.206,-0.469 0.171,-0.461 0.149,-0.444C0.127,-0.428 0.116,-0.407 0.116,-0.382C0.116,-0.362 0.122,-0.346 0.134,-0.335C0.146,-0.323 0.162,-0.314 0.183,-0.308C0.203,-0.302 0.225,-0.297 0.25,-0.293C0.274,-0.289 0.298,-0.284 0.323,-0.279C0.347,-0.273 0.369,-0.265 0.389,-0.256C0.41,-0.246 0.426,-0.232 0.438,-0.214C0.45,-0.197 0.457,-0.174 0.457,-0.145C0.457,-0.114 0.448,-0.088 0.431,-0.066C0.414,-0.043 0.389,-0.026 0.357,-0.014C0.325,-0.001 0.286,0.005 0.24,0.005Z" style="fill-rule:nonzero;"/>
                </g>
                <g transform="matrix(22,0,0,22,225.4685,340.3107)">
                    <path d="M0.265,0.005C0.216,0.005 0.178,-0.009 0.151,-0.035C0.124,-0.062 0.111,-0.1 0.111,-0.148L0.111,-0.641L0.182,-0.641L0.182,-0.152C0.182,-0.121 0.19,-0.097 0.205,-0.081C0.221,-0.064 0.243,-0.056 0.273,-0.056C0.304,-0.056 0.33,-0.065 0.351,-0.083L0.376,-0.032C0.362,-0.019 0.345,-0.01 0.326,-0.004C0.306,0.002 0.286,0.005 0.265,0.005ZM0.017,-0.466L0.017,-0.525L0.342,-0.525L0.342,-0.466L0.017,-0.466Z" style="fill-rule:nonzero;"/>
                </g>
                <g transform="matrix(22,0,0,22,254.8605,340.3107)">
                    <path d="M0.316,0.005C0.271,0.005 0.232,-0.004 0.199,-0.02C0.165,-0.037 0.14,-0.062 0.121,-0.095C0.103,-0.129 0.094,-0.17 0.094,-0.221L0.094,-0.525L0.165,-0.525L0.165,-0.228C0.165,-0.172 0.179,-0.13 0.206,-0.102C0.234,-0.073 0.273,-0.059 0.323,-0.059C0.36,-0.059 0.392,-0.067 0.418,-0.082C0.445,-0.097 0.466,-0.119 0.48,-0.147C0.495,-0.176 0.502,-0.21 0.502,-0.25L0.502,-0.525L0.573,-0.525L0.573,-0L0.505,-0L0.505,-0.144L0.516,-0.118C0.5,-0.079 0.474,-0.049 0.439,-0.028C0.404,-0.006 0.363,0.005 0.316,0.005Z" style="fill-rule:nonzero;"/>
                </g>
                <g transform="matrix(22,0,0,22,290.1045,340.3107)">
                    <path d="M0.308,0.005C0.258,0.005 0.214,-0.007 0.174,-0.029C0.134,-0.052 0.103,-0.083 0.08,-0.123C0.057,-0.163 0.046,-0.21 0.046,-0.263C0.046,-0.316 0.057,-0.363 0.08,-0.403C0.103,-0.443 0.134,-0.474 0.174,-0.496C0.214,-0.519 0.258,-0.53 0.308,-0.53C0.354,-0.53 0.395,-0.52 0.431,-0.499C0.468,-0.478 0.497,-0.448 0.519,-0.408C0.54,-0.369 0.551,-0.32 0.551,-0.263C0.551,-0.206 0.541,-0.158 0.519,-0.118C0.498,-0.078 0.469,-0.047 0.433,-0.027C0.396,-0.006 0.355,0.005 0.308,0.005ZM0.314,-0.058C0.351,-0.058 0.384,-0.066 0.414,-0.084C0.443,-0.101 0.466,-0.125 0.484,-0.156C0.501,-0.187 0.509,-0.222 0.509,-0.263C0.509,-0.304 0.501,-0.34 0.484,-0.371C0.466,-0.401 0.443,-0.425 0.414,-0.442C0.384,-0.459 0.351,-0.468 0.314,-0.468C0.276,-0.468 0.243,-0.459 0.214,-0.442C0.184,-0.425 0.161,-0.401 0.144,-0.371C0.126,-0.34 0.118,-0.304 0.118,-0.263C0.118,-0.222 0.126,-0.187 0.144,-0.156C0.161,-0.125 0.184,-0.101 0.214,-0.084C0.243,-0.066 0.276,-0.058 0.314,-0.058ZM0.511,-0L0.511,-0.158L0.518,-0.264L0.508,-0.37L0.508,-0.742L0.579,-0.742L0.579,-0L0.511,-0Z" style="fill-rule:nonzero;"/>
                </g>
                <g transform="matrix(22,0,0,22,325.4805,340.3107)">
                    <path d="M0.099,-0L0.099,-0.525L0.17,-0.525L0.17,-0L0.099,-0ZM0.135,-0.641C0.12,-0.641 0.108,-0.646 0.098,-0.656C0.088,-0.666 0.083,-0.678 0.083,-0.692C0.083,-0.706 0.088,-0.718 0.098,-0.727C0.108,-0.737 0.12,-0.742 0.135,-0.742C0.15,-0.742 0.162,-0.737 0.172,-0.728C0.182,-0.719 0.187,-0.707 0.187,-0.693C0.187,-0.679 0.182,-0.666 0.172,-0.656C0.163,-0.646 0.15,-0.641 0.135,-0.641Z" style="fill-rule:nonzero;"/>
                </g>
                <g transform="matrix(22,0,0,22,351.8585,340.3107)">
                    <path d="M0.314,0.005C0.262,0.005 0.217,-0.007 0.176,-0.03C0.136,-0.053 0.104,-0.084 0.081,-0.125C0.058,-0.165 0.046,-0.211 0.046,-0.263C0.046,-0.315 0.058,-0.362 0.081,-0.402C0.105,-0.442 0.136,-0.473 0.176,-0.496C0.216,-0.519 0.262,-0.53 0.314,-0.53C0.365,-0.53 0.411,-0.519 0.451,-0.496C0.492,-0.473 0.523,-0.442 0.546,-0.402C0.569,-0.362 0.581,-0.316 0.581,-0.263C0.581,-0.211 0.569,-0.165 0.546,-0.125C0.523,-0.084 0.492,-0.053 0.451,-0.03C0.411,-0.007 0.365,0.005 0.314,0.005ZM0.314,-0.058C0.351,-0.058 0.385,-0.066 0.414,-0.084C0.444,-0.101 0.467,-0.125 0.484,-0.156C0.501,-0.187 0.509,-0.222 0.509,-0.263C0.509,-0.304 0.501,-0.34 0.484,-0.371C0.467,-0.401 0.444,-0.425 0.414,-0.442C0.385,-0.459 0.351,-0.468 0.314,-0.468C0.276,-0.468 0.243,-0.459 0.214,-0.442C0.184,-0.425 0.161,-0.401 0.144,-0.371C0.126,-0.34 0.118,-0.304 0.118,-0.263C0.118,-0.222 0.126,-0.187 0.144,-0.156C0.161,-0.125 0.184,-0.101 0.214,-0.084C0.243,-0.066 0.276,-0.058 0.314,-0.058Z" style="fill-rule:nonzero;"/>
                </g>
            </g>
        </g>
        <g id="sin-relleno" serif:id="sin relleno" transform="matrix(4.166667,0,0,4.166667,3946.359375,0)">
            <g id="s-t-u-d-i-o1" serif:id="s t u d i o" transform="matrix(1,0,0,1,0,130.830756)">
                <g transform="matrix(22,0,0,22,194.2725,340.3107)">
                    <path d="M0.24,0.005C0.197,0.005 0.156,-0.001 0.117,-0.014C0.078,-0.026 0.048,-0.042 0.026,-0.06L0.058,-0.116C0.079,-0.1 0.106,-0.086 0.14,-0.074C0.173,-0.063 0.208,-0.057 0.245,-0.057C0.295,-0.057 0.331,-0.065 0.353,-0.08C0.375,-0.096 0.386,-0.117 0.386,-0.143C0.386,-0.162 0.38,-0.177 0.368,-0.188C0.355,-0.199 0.339,-0.208 0.319,-0.213C0.299,-0.219 0.276,-0.224 0.252,-0.228C0.228,-0.232 0.203,-0.237 0.179,-0.242C0.154,-0.248 0.132,-0.256 0.112,-0.266C0.092,-0.276 0.075,-0.29 0.063,-0.308C0.051,-0.326 0.045,-0.35 0.045,-0.38C0.045,-0.409 0.053,-0.434 0.069,-0.457C0.085,-0.48 0.109,-0.498 0.14,-0.511C0.171,-0.524 0.209,-0.53 0.253,-0.53C0.287,-0.53 0.321,-0.526 0.355,-0.517C0.389,-0.508 0.417,-0.496 0.439,-0.481L0.408,-0.424C0.385,-0.44 0.36,-0.452 0.333,-0.458C0.307,-0.465 0.28,-0.469 0.253,-0.469C0.206,-0.469 0.171,-0.461 0.149,-0.444C0.127,-0.428 0.116,-0.407 0.116,-0.382C0.116,-0.362 0.122,-0.346 0.134,-0.335C0.146,-0.323 0.162,-0.314 0.183,-0.308C0.203,-0.302 0.225,-0.297 0.25,-0.293C0.274,-0.289 0.298,-0.284 0.323,-0.279C0.347,-0.273 0.369,-0.265 0.389,-0.256C0.41,-0.246 0.426,-0.232 0.438,-0.214C0.45,-0.197 0.457,-0.174 0.457,-0.145C0.457,-0.114 0.448,-0.088 0.431,-0.066C0.414,-0.043 0.389,-0.026 0.357,-0.014C0.325,-0.001 0.286,0.005 0.24,0.005Z" style="fill-rule:nonzero;"/>
                </g>
                <g transform="matrix(22,0,0,22,225.4685,340.3107)">
                    <path d="M0.265,0.005C0.216,0.005 0.178,-0.009 0.151,-0.035C0.124,-0.062 0.111,-0.1 0.111,-0.148L0.111,-0.641L0.182,-0.641L0.182,-0.152C0.182,-0.121 0.19,-0.097 0.205,-0.081C0.221,-0.064 0.243,-0.056 0.273,-0.056C0.304,-0.056 0.33,-0.065 0.351,-0.083L0.376,-0.032C0.362,-0.019 0.345,-0.01 0.326,-0.004C0.306,0.002 0.286,0.005 0.265,0.005ZM0.017,-0.466L0.017,-0.525L0.342,-0.525L0.342,-0.466L0.017,-0.466Z" style="fill-rule:nonzero;"/>
                </g>
                <g transform="matrix(22,0,0,22,254.8605,340.3107)">
                    <path d="M0.316,0.005C0.271,0.005 0.232,-0.004 0.199,-0.02C0.165,-0.037 0.14,-0.062 0.121,-0.095C0.103,-0.129 0.094,-0.17 0.094,-0.221L0.094,-0.525L0.165,-0.525L0.165,-0.228C0.165,-0.172 0.179,-0.13 0.206,-0.102C0.234,-0.073 0.273,-0.059 0.323,-0.059C0.36,-0.059 0.392,-0.067 0.418,-0.082C0.445,-0.097 0.466,-0.119 0.48,-0.147C0.495,-0.176 0.502,-0.21 0.502,-0.25L0.502,-0.525L0.573,-0.525L0.573,-0L0.505,-0L0.505,-0.144L0.516,-0.118C0.5,-0.079 0.474,-0.049 0.439,-0.028C0.404,-0.006 0.363,0.005 0.316,0.005Z" style="fill-rule:nonzero;"/>
                </g>
                <g transform="matrix(22,0,0,22,290.1045,340.3107)">
                    <path d="M0.308,0.005C0.258,0.005 0.214,-0.007 0.174,-0.029C0.134,-0.052 0.103,-0.083 0.08,-0.123C0.057,-0.163 0.046,-0.21 0.046,-0.263C0.046,-0.316 0.057,-0.363 0.08,-0.403C0.103,-0.443 0.134,-0.474 0.174,-0.496C0.214,-0.519 0.258,-0.53 0.308,-0.53C0.354,-0.53 0.395,-0.52 0.431,-0.499C0.468,-0.478 0.497,-0.448 0.519,-0.408C0.54,-0.369 0.551,-0.32 0.551,-0.263C0.551,-0.206 0.541,-0.158 0.519,-0.118C0.498,-0.078 0.469,-0.047 0.433,-0.027C0.396,-0.006 0.355,0.005 0.308,0.005ZM0.314,-0.058C0.351,-0.058 0.384,-0.066 0.414,-0.084C0.443,-0.101 0.466,-0.125 0.484,-0.156C0.501,-0.187 0.509,-0.222 0.509,-0.263C0.509,-0.304 0.501,-0.34 0.484,-0.371C0.466,-0.401 0.443,-0.425 0.414,-0.442C0.384,-0.459 0.351,-0.468 0.314,-0.468C0.276,-0.468 0.243,-0.459 0.214,-0.442C0.184,-0.425 0.161,-0.401 0.144,-0.371C0.126,-0.34 0.118,-0.304 0.118,-0.263C0.118,-0.222 0.126,-0.187 0.144,-0.156C0.161,-0.125 0.184,-0.101 0.214,-0.084C0.243,-0.066 0.276,-0.058 0.314,-0.058ZM0.511,-0L0.511,-0.158L0.518,-0.264L0.508,-0.37L0.508,-0.742L0.579,-0.742L0.579,-0L0.511,-0Z" style="fill-rule:nonzero;"/>
                </g>
                <g transform="matrix(22,0,0,22,325.4805,340.3107)">
                    <path d="M0.099,-0L0.099,-0.525L0.17,-0.525L0.17,-0L0.099,-0ZM0.135,-0.641C0.12,-0.641 0.108,-0.646 0.098,-0.656C0.088,-0.666 0.083,-0.678 0.083,-0.692C0.083,-0.706 0.088,-0.718 0.098,-0.727C0.108,-0.737 0.12,-0.742 0.135,-0.742C0.15,-0.742 0.162,-0.737 0.172,-0.728C0.182,-0.719 0.187,-0.707 0.187,-0.693C0.187,-0.679 0.182,-0.666 0.172,-0.656C0.163,-0.646 0.15,-0.641 0.135,-0.641Z" style="fill-rule:nonzero;"/>
                </g>
                <g transform="matrix(22,0,0,22,351.8585,340.3107)">
                    <path d="M0.314,0.005C0.262,0.005 0.217,-0.007 0.176,-0.03C0.136,-0.053 0.104,-0.084 0.081,-0.125C0.058,-0.165 0.046,-0.211 0.046,-0.263C0.046,-0.315 0.058,-0.362 0.081,-0.402C0.105,-0.442 0.136,-0.473 0.176,-0.496C0.216,-0.519 0.262,-0.53 0.314,-0.53C0.365,-0.53 0.411,-0.519 0.451,-0.496C0.492,-0.473 0.523,-0.442 0.546,-0.402C0.569,-0.362 0.581,-0.316 0.581,-0.263C0.581,-0.211 0.569,-0.165 0.546,-0.125C0.523,-0.084 0.492,-0.053 0.451,-0.03C0.411,-0.007 0.365,0.005 0.314,0.005ZM0.314,-0.058C0.351,-0.058 0.385,-0.066 0.414,-0.084C0.444,-0.101 0.467,-0.125 0.484,-0.156C0.501,-0.187 0.509,-0.222 0.509,-0.263C0.509,-0.304 0.501,-0.34 0.484,-0.371C0.467,-0.401 0.444,-0.425 0.414,-0.442C0.385,-0.459 0.351,-0.468 0.314,-0.468C0.276,-0.468 0.243,-0.459 0.214,-0.442C0.184,-0.425 0.161,-0.401 0.144,-0.371C0.126,-0.34 0.118,-0.304 0.118,-0.263C0.118,-0.222 0.126,-0.187 0.144,-0.156C0.161,-0.125 0.184,-0.101 0.214,-0.084C0.243,-0.066 0.276,-0.058 0.314,-0.058Z" style="fill-rule:nonzero;"/>
                </g>
            </g>
            <g transform="matrix(0.24,0,0,0.24,-947.12625,0)">
                <path d="M5499.447,1316.138L4726.489,1316.137L4726.489,946.563L5499.447,946.563L5499.447,1316.138ZM5129.855,954.896L5129.855,1307.804L5491.114,1307.804L5491.114,954.896L5129.855,954.896ZM4995.395,1008.561L4995.395,980.163L4979.437,980.163C4973.562,980.371 4967.692,980.942 4961.812,981.913C4917.847,989.172 4873.712,1016.559 4837.895,1058.788C4820.074,1079.799 4804.314,1104.395 4791.687,1131.955C4787.967,1140.074 4784.52,1148.455 4781.395,1157.038L4780.562,1159.288C4777.437,1167.83 4774.616,1176.458 4772.229,1185.038C4766.219,1206.63 4762.506,1228.082 4760.937,1248.913C4760.077,1260.331 4759.854,1271.58 4760.354,1282.538L4776.895,1282.538C4776.729,1278.955 4776.645,1275.33 4776.645,1271.663C4776.645,1264.205 4776.942,1256.622 4777.562,1248.913C4779.116,1229.581 4782.683,1209.632 4788.27,1189.538C4790.494,1181.542 4793.187,1173.288 4796.229,1164.996L4797.02,1162.788C4800.062,1154.496 4803.384,1146.491 4806.854,1138.913C4824.299,1100.804 4847.94,1068.708 4874.479,1044.705C4901.607,1020.167 4931.812,1004.08 4961.812,998.746C4961.854,998.705 4961.895,998.663 4961.937,998.746L4961.937,1034.528C4953.904,1041.954 4946.158,1050.062 4938.758,1058.788C4920.937,1079.799 4905.176,1104.395 4892.549,1131.955C4888.829,1140.074 4885.383,1148.455 4882.258,1157.038L4881.424,1159.288C4878.299,1167.83 4875.479,1176.458 4873.091,1185.038C4867.082,1206.63 4863.368,1228.082 4861.799,1248.913C4860.939,1260.331 4860.716,1271.58 4861.216,1282.538L4877.758,1282.538C4877.591,1278.955 4877.508,1275.33 4877.508,1271.663C4877.508,1264.205 4877.805,1256.622 4878.424,1248.913C4879.979,1229.581 4883.545,1209.632 4889.133,1189.538C4891.356,1181.542 4894.049,1173.288 4897.091,1164.996L4897.883,1162.788C4900.924,1154.496 4904.247,1146.491 4907.716,1138.913C4922.164,1107.353 4940.874,1079.921 4961.937,1057.785L4961.937,1248.913L4961.812,1248.913L4961.812,1282.538L4995.395,1282.538L4995.395,1028.501C5016.98,1013.05 5039.887,1002.797 5062.674,998.746C5062.716,998.705 5062.758,998.663 5062.799,998.746L5062.799,1248.913L5062.674,1248.913L5062.674,1282.538L5096.258,1282.538L5096.258,980.163L5080.299,980.163C5074.424,980.371 5068.554,980.942 5062.674,981.913C5039.908,985.672 5017.072,994.714 4995.395,1008.561Z" style="fill:rgb(25,25,25);"/>
            </g>
            <g transform="matrix(0.24,0,0,0.24,-947.12625,0)">
                <path d="M5353.043,1131.35C5403.597,1162.431 5440.428,1204.61 5457.066,1248.925C5461.233,1260.05 5464.108,1271.3 5465.608,1282.55L5163.441,1282.55L5163.441,1248.925L5439.233,1248.925C5422.135,1208.019 5385.805,1169.102 5336.507,1140.852C5328.041,1145.391 5319.246,1149.628 5310.15,1153.525C5301.941,1157.067 5293.483,1160.275 5284.858,1163.234L5282.608,1163.984C5273.983,1166.9 5265.275,1169.484 5256.608,1171.692C5224.65,1179.775 5193.108,1182.859 5163.441,1181.4L5163.441,1164.859C5191.608,1166.275 5221.816,1163.317 5252.525,1155.525C5260.566,1153.484 5268.9,1151.025 5277.275,1148.192L5279.525,1147.442C5287.858,1144.609 5295.983,1141.525 5303.608,1138.234C5308.711,1136.046 5313.711,1133.75 5318.605,1131.35C5313.711,1128.951 5308.711,1126.654 5303.608,1124.467C5295.983,1121.175 5287.858,1118.092 5279.525,1115.258L5277.275,1114.508C5268.9,1111.675 5260.566,1109.217 5252.525,1107.175C5221.816,1099.383 5191.608,1096.425 5163.441,1097.842L5163.441,1081.3C5193.108,1079.842 5224.65,1082.925 5256.608,1091.008C5265.275,1093.217 5273.983,1095.8 5282.608,1098.717L5284.858,1099.467C5293.483,1102.425 5301.941,1105.633 5310.15,1109.175C5319.246,1113.073 5328.041,1117.309 5336.507,1121.849C5385.805,1093.598 5422.135,1054.681 5439.233,1013.775L5163.441,1013.775L5163.441,980.15L5465.608,980.15C5464.108,991.4 5461.233,1002.65 5457.066,1013.775C5440.428,1058.091 5403.597,1100.27 5353.043,1131.35Z" style="fill:rgb(25,25,25);"/>
            </g>
        </g>
    </g>
</svg>
